HIERARCHY
ROOT Hips
{
  OFFSET -0.589095 22.1471 2.58842
  CHANNELS 6 Xposition Yposition Zposition Zrotation Xrotation Yrotation
  JOINT BN_Bip01_Pelvis
  {
    OFFSET -3.49357 -5.29363 -0.000213444
    CHANNELS 6 Xposition Yposition Zposition Zrotation Xrotation Yrotation
    JOINT BN_leg_R_01
    {
      OFFSET 10.8127 -7.82778 -6.29737
      CHANNELS 6 Xposition Yposition Zposition Zrotation Xrotation Yrotation
      JOINT BN_leg_R_02
      {
        OFFSET 8.91071 0 0
        CHANNELS 6 Xposition Yposition Zposition Zrotation Xrotation Yrotation
        JOINT BN_leg_R_03
        {
          OFFSET 15.6024 0 0
          CHANNELS 6 Xposition Yposition Zposition Zrotation Xrotation Yrotation
          JOINT BN_leg_R_04
          {
            OFFSET 9.68174 0 0
            CHANNELS 6 Xposition Yposition Zposition Zrotation Xrotation Yrotation
            JOINT BN_leg_R_05
            {
              OFFSET 10.6982 0 0
              CHANNELS 6 Xposition Yposition Zposition Zrotation Xrotation Yrotation
              JOINT BN_Leg_R_05Nub
              {
                OFFSET 11.1504 0 0
                CHANNELS 6 Xposition Yposition Zposition Zrotation Xrotation Yrotation
                End Site
                {
                  OFFSET 0 0 0
                }
              }
            }
          }
        }
      }
    }
    JOINT BN_leg_R_06
    {
      OFFSET 6.51511 -7.99898 -4.29089
      CHANNELS 6 Xposition Yposition Zposition Zrotation Xrotation Yrotation
      JOINT BN_Leg_R_07
      {
        OFFSET 9.03709 0 0
        CHANNELS 6 Xposition Yposition Zposition Zrotation Xrotation Yrotation
        JOINT BN_Leg_R_08
        {
          OFFSET 18.7638 0 0
          CHANNELS 6 Xposition Yposition Zposition Zrotation Xrotation Yrotation
          JOINT BN_Leg_R_09
          {
            OFFSET 10.9666 0 0
            CHANNELS 6 Xposition Yposition Zposition Zrotation Xrotation Yrotation
            JOINT BN_Leg_R_10
            {
              OFFSET 10.8726 0 0
              CHANNELS 6 Xposition Yposition Zposition Zrotation Xrotation Yrotation
              JOINT BN_Leg_R_10Nub
              {
                OFFSET 11.2648 0 0
                CHANNELS 6 Xposition Yposition Zposition Zrotation Xrotation Yrotation
                End Site
                {
                  OFFSET 0 0 0
                }
              }
            }
          }
        }
      }
    }
    JOINT BN_Leg_R_11
    {
      OFFSET 2.71429 -8.18693 -0.209972
      CHANNELS 6 Xposition Yposition Zposition Zrotation Xrotation Yrotation
      JOINT BN_Leg_R_12
      {
        OFFSET 9.8713 0 0
        CHANNELS 6 Xposition Yposition Zposition Zrotation Xrotation Yrotation
        JOINT BN_Leg_R_13
        {
          OFFSET 21.8657 0 0
          CHANNELS 6 Xposition Yposition Zposition Zrotation Xrotation Yrotation
          JOINT BN_Leg_R_14
          {
            OFFSET 11.0011 0 0
            CHANNELS 6 Xposition Yposition Zposition Zrotation Xrotation Yrotation
            JOINT BN_Leg_R_15
            {
              OFFSET 12.8798 0 0
              CHANNELS 6 Xposition Yposition Zposition Zrotation Xrotation Yrotation
              JOINT BN_Leg_R_15Nub
              {
                OFFSET 13.0642 0 0
                CHANNELS 6 Xposition Yposition Zposition Zrotation Xrotation Yrotation
                End Site
                {
                  OFFSET 0 0 0
                }
              }
            }
          }
        }
      }
    }
    JOINT BN_Leg_L_11
    {
      OFFSET 2.7143 8.18692 -0.209982
      CHANNELS 6 Xposition Yposition Zposition Zrotation Xrotation Yrotation
      JOINT BN_Leg_L_12
      {
        OFFSET 9.87129 0 0
        CHANNELS 6 Xposition Yposition Zposition Zrotation Xrotation Yrotation
        JOINT BN_Leg_L_13
        {
          OFFSET 21.8657 0 0
          CHANNELS 6 Xposition Yposition Zposition Zrotation Xrotation Yrotation
          JOINT BN_Leg_L_14
          {
            OFFSET 11.0011 0 0
            CHANNELS 6 Xposition Yposition Zposition Zrotation Xrotation Yrotation
            JOINT BN_Leg_L_15
            {
              OFFSET 12.8798 0 0
              CHANNELS 6 Xposition Yposition Zposition Zrotation Xrotation Yrotation
              JOINT BN_Leg_L_15Nub
              {
                OFFSET 13.0642 0 0
                CHANNELS 6 Xposition Yposition Zposition Zrotation Xrotation Yrotation
                End Site
                {
                  OFFSET 0 0 0
                }
              }
            }
          }
        }
      }
    }
    JOINT BN_leg_L_06
    {
      OFFSET 6.51511 7.99896 -4.29091
      CHANNELS 6 Xposition Yposition Zposition Zrotation Xrotation Yrotation
      JOINT BN_Leg_L_07
      {
        OFFSET 9.03709 0 0
        CHANNELS 6 Xposition Yposition Zposition Zrotation Xrotation Yrotation
        JOINT BN_Leg_L_08
        {
          OFFSET 18.7638 0 0
          CHANNELS 6 Xposition Yposition Zposition Zrotation Xrotation Yrotation
          JOINT BN_Leg_L_09
          {
            OFFSET 10.9666 0 0
            CHANNELS 6 Xposition Yposition Zposition Zrotation Xrotation Yrotation
            JOINT BN_Leg_L_10
            {
              OFFSET 10.8726 0 0
              CHANNELS 6 Xposition Yposition Zposition Zrotation Xrotation Yrotation
              JOINT BN_Leg_L_10Nub
              {
                OFFSET 11.2649 0 0
                CHANNELS 6 Xposition Yposition Zposition Zrotation Xrotation Yrotation
                End Site
                {
                  OFFSET 0 0 0
                }
              }
            }
          }
        }
      }
    }
    JOINT BN_leg_L_01
    {
      OFFSET 10.8127 7.82776 -6.29737
      CHANNELS 6 Xposition Yposition Zposition Zrotation Xrotation Yrotation
      JOINT BN_leg_L_02
      {
        OFFSET 8.91072 0 0
        CHANNELS 6 Xposition Yposition Zposition Zrotation Xrotation Yrotation
        JOINT BN_leg_L_03
        {
          OFFSET 15.6024 0 0
          CHANNELS 6 Xposition Yposition Zposition Zrotation Xrotation Yrotation
          JOINT BN_leg_L_04
          {
            OFFSET 9.68174 0 0
            CHANNELS 6 Xposition Yposition Zposition Zrotation Xrotation Yrotation
            JOINT BN_leg_L_05
            {
              OFFSET 10.6982 0 0
              CHANNELS 6 Xposition Yposition Zposition Zrotation Xrotation Yrotation
              JOINT BN_Leg_L_05Nub
              {
                OFFSET 11.1504 0 0
                CHANNELS 6 Xposition Yposition Zposition Zrotation Xrotation Yrotation
                End Site
                {
                  OFFSET 0 0 0
                }
              }
            }
          }
        }
      }
    }
    JOINT BN_Eye_L_01
    {
      OFFSET 28.5502 2.54627 -3.93739
      CHANNELS 6 Xposition Yposition Zposition Zrotation Xrotation Yrotation
      JOINT BN_Eye_L_02
      {
        OFFSET 2.30267 0 0
        CHANNELS 6 Xposition Yposition Zposition Zrotation Xrotation Yrotation
        JOINT BN_Eye_L_03
        {
          OFFSET 5.31894 0 0
          CHANNELS 6 Xposition Yposition Zposition Zrotation Xrotation Yrotation
          JOINT BN_Eye_L_04
          {
            OFFSET 9.71244 0 0
            CHANNELS 6 Xposition Yposition Zposition Zrotation Xrotation Yrotation
            End Site
            {
              OFFSET 0 0 0
            }
          }
        }
      }
    }
    JOINT BN_Eye_R_01
    {
      OFFSET 28.5502 -2.54612 -3.93738
      CHANNELS 6 Xposition Yposition Zposition Zrotation Xrotation Yrotation
      JOINT BN_Eye_R_02
      {
        OFFSET 2.30267 0 0
        CHANNELS 6 Xposition Yposition Zposition Zrotation Xrotation Yrotation
        JOINT BN_Eye_R_03
        {
          OFFSET 5.31896 0 0
          CHANNELS 6 Xposition Yposition Zposition Zrotation Xrotation Yrotation
          JOINT BN_Eye_R_04
          {
            OFFSET 9.71244 0 0
            CHANNELS 6 Xposition Yposition Zposition Zrotation Xrotation Yrotation
            End Site
            {
              OFFSET 0 0 0
            }
          }
        }
      }
    }
    JOINT BN_Arm_L_01
    {
      OFFSET 15.9737 8.03546 -8.36195
      CHANNELS 6 Xposition Yposition Zposition Zrotation Xrotation Yrotation
      JOINT BN_Arm_L_02
      {
        OFFSET 16.8869 0 0
        CHANNELS 6 Xposition Yposition Zposition Zrotation Xrotation Yrotation
        JOINT BN_Arm_L_03
        {
          OFFSET 8.42975 0 0
          CHANNELS 6 Xposition Yposition Zposition Zrotation Xrotation Yrotation
          JOINT BN_Arm_L_04
          {
            OFFSET 7.53864 -0.0312023 2.09083
            CHANNELS 6 Xposition Yposition Zposition Zrotation Xrotation Yrotation
            End Site
            {
              OFFSET 0 0 0
            }
          }
        }
      }
    }
    JOINT BN_Arm_R_01
    {
      OFFSET 14.7806 -6.70232 -9.44366
      CHANNELS 6 Xposition Yposition Zposition Zrotation Xrotation Yrotation
      JOINT BN_Arm_R_02
      {
        OFFSET 19.9827 0 0
        CHANNELS 6 Xposition Yposition Zposition Zrotation Xrotation Yrotation
        JOINT BN_Arm_R_03
        {
          OFFSET 17.4553 0 0
          CHANNELS 6 Xposition Yposition Zposition Zrotation Xrotation Yrotation
          JOINT BN_Arm_R_04
          {
            OFFSET 13.3834 -2.22657 7.3982
            CHANNELS 6 Xposition Yposition Zposition Zrotation Xrotation Yrotation
            End Site
            {
              OFFSET 0 0 0
            }
          }
        }
      }
    }
  }
}
MOTION
Frames:	4
Frame Time:	0.0333333
-12.9273 19.8513 0.217673 0.000617077 -0.00231363 29.996 -3.49325 -5.29384 8.88178e-016 -73.7906 -87.5419 -115.056 10.8127 -7.82778 -6.29737 -145.151 22.3146 31.966 8.91072 1.90735e-006 0 86.8355 1.13085 1.78533 15.6024 4.76837e-007 -4.76837e-007 -46.7454 12.6764 25.2203 9.68174 -1.90735e-006 -1.90735e-006 -35.558 -1.06573 -14.5178 10.6982 0 -9.53674e-007 -52.8807 4.11487 -2.17817 11.1504 3.8147e-006 -2.38419e-006 -2.79937e-007 3.59134e-006 6.73637e-009 6.5151 -7.99897 -4.2909 -115.942 39.694 -6.32704 9.0371 1.77636e-015 0 74.6522 -1.83449 -2.79786 18.7638 4.76837e-007 0 -74.6645 1.82578 2.73412 10.9666 0 4.76837e-007 -27.9221 -0.505736 -1.43027 10.8726 7.10543e-015 1.77636e-015 -26.1871 -0.0156137 -2.65007 11.2648 -7.10543e-015 9.53674e-007 -6.12287e-007 1.88664e-006 1.52381e-006 2.71428 -8.18693 -0.209972 -166.862 53.5462 -28.3111 9.87129 0 1.77636e-015 75.6713 2.13074 -0.592142 21.8657 -3.8147e-006 2.86102e-006 -61.9631 1.77565 15.9778 11.0012 0 -9.53674e-007 -7.33285 -0.272772 -0.501079 12.8798 3.81469e-006 -7.62939e-006 -13.6467 -0.0321751 0.151121 13.0642 -3.81469e-006 -9.53674e-007 5.61395e-007 9.30676e-006 2.39853e-008 2.7143 8.18693 -0.20998 136.405 -30.0731 1.29314 9.87129 0 9.53674e-007 -69.7771 -2.19174 -0.55625 21.8657 -2.86102e-006 -9.53674e-007 55.5909 -6.52301 22.3549 11.0011 -3.8147e-006 5.72205e-006 15.3977 0.313166 -0.737561 12.8798 0 0 23.8904 0.0332227 0.0894835 13.0642 3.8147e-006 0 -5.09253e-007 9.63344e-006 -1.38985e-006 6.51512 7.99896 -4.2909 129.107 -11.0598 30.7724 9.03709 9.53674e-007 -9.53674e-007 -104.116 2.42318 -2.8207 18.7638 -1.77636e-015 -1.90735e-006 96.8592 -15.3302 38.9967 10.9666 7.62939e-006 9.53675e-007 24.3948 0.54063 -1.19026 10.8726 -3.81469e-006 0 22.7032 0.0140375 -2.39997 11.2648 3.81469e-006 9.53675e-007 4.71347e-007 9.9082e-007 -1.35481e-007 10.8127 7.82777 -6.29737 107.354 -21.4898 66.5793 8.91072 0 0 -82.53 -0.899346 1.75139 15.6024 0 0 62.2545 10.5146 0.163849 9.68174 -3.8147e-006 0 44.2672 1.73266 -16.4767 10.6982 -3.8147e-006 0 63.2115 -4.11063 -3.32204 11.1504 0 -1.90735e-006 7.64333e-007 9.35755e-006 -3.13889e-007 28.5502 2.54628 -3.93738 89.9967 -39.1518 50.3844 2.30267 -3.55271e-015 0 -36.5389 -0.0143849 -0.00106481 5.31894 0 1.77636e-015 -40.3147 -0.979313 -4.51057 9.71243 -9.53674e-007 3.57628e-007 1.66258 1.3212 -17.5943 28.5502 -2.54612 -3.93738 89.9968 -39.1541 129.609 2.30268 -3.8147e-006 0 -36.5389 -2.49417e-007 1.14448e-006 5.31894 1.90735e-006 -4.76837e-007 -38.3689 -0.385197 -4.73785 9.71243 -7.15256e-007 -7.15256e-007 -20.7329 0.923078 -12.2707 15.9737 8.03546 -8.36195 119.374 46.7119 -57.6276 16.8869 3.33786e-006 3.33786e-006 -95.4877 -7.03363 -32.4632 8.42976 -3.8147e-006 -9.53675e-007 -77.1102 -8.28012 13.1859 7.53864 -0.0312118 2.09083 -12.3467 -1.50632 20.6754 14.7806 -6.70232 -9.44365 -34.7873 -38.3806 4.79783 19.9827 0 2.86102e-006 73.626 3.44574 -1.0763 17.4553 -5.72205e-006 -2.86102e-006 63.1873 11.6216 -5.62267 13.3835 -2.22654 7.3982 8.80067 1.66399 12.226 
-12.9273 20.3444 0.217673 0.000617077 -0.00231363 29.996 -3.49325 -5.29384 1.77636e-015 -74.8433 -87.6225 -115.888 10.8127 -7.82778 -6.29737 -149.409 23.4794 26.0585 8.91072 1.90735e-006 8.88178e-016 88.9934 1.19728 1.74149 15.6024 4.76837e-007 -4.76837e-007 -50.0808 17.4161 30.6757 9.68174 -1.90735e-006 -1.90735e-006 -37.0474 -1.1859 -14.863 10.6982 0 -9.53674e-007 -54.6495 4.11207 -2.38679 11.1504 3.8147e-006 -2.38419e-006 -2.79937e-007 3.59134e-006 6.73637e-009 6.5151 -7.99897 -4.2909 -116.341 39.2842 -5.64288 9.0371 1.24345e-014 0 74.5972 -1.83278 -2.79988 18.7638 4.76837e-007 7.10543e-015 -73.2951 3.4046 5.69048 10.9666 0 4.76837e-007 -28.5869 -0.47386 -1.46401 10.8726 7.10543e-015 5.32907e-015 -26.843 -0.015456 -2.69358 11.2648 0 9.53674e-007 -6.12287e-007 1.88664e-006 1.52381e-006 2.71428 -8.18693 -0.209972 -167.567 53.5388 -26.7359 9.87129 0 0 77.1244 2.11505 -0.645972 21.8657 -3.8147e-006 2.86102e-006 -64.7347 1.46047 15.446 11.0012 -2.84217e-014 -9.53674e-007 -6.27903 -0.265691 -0.464039 12.8798 3.81469e-006 -7.62939e-006 -12.2549 -0.0291981 0.155094 13.0642 -3.81469e-006 -9.53674e-007 5.61395e-007 9.30676e-006 2.39852e-008 2.7143 8.18693 -0.20998 133.674 -30.2238 -0.423499 9.87129 3.55271e-015 9.53674e-007 -63.9439 -2.24752 -0.508791 21.8657 -2.86102e-006 -9.53674e-007 49.9753 -5.89563 20.6573 11.0011 -3.8147e-006 5.72205e-006 15.8663 0.305098 -0.747219 12.8798 7.10543e-015 1.42109e-014 24.4732 0.0326884 0.0859712 13.0642 3.8147e-006 0 -5.09253e-007 9.63344e-006 -1.38985e-006 6.51512 7.99896 -4.2909 136.274 -9.89104 32.481 9.03709 9.53674e-007 -9.53674e-007 -103.327 2.41119 -2.84737 18.7638 -1.77636e-014 -1.90735e-006 87.2871 -21.806 40.4645 10.9666 7.62939e-006 9.53675e-007 33.0217 0.445816 -1.77309 10.8726 -3.81469e-006 -6.39489e-014 31.2384 0.013999 -2.98452 11.2648 3.81469e-006 9.53675e-007 4.71347e-007 9.9082e-007 -1.35481e-007 10.8127 7.82777 -6.29737 102.864 -24.1726 63.9533 8.91072 -1.06581e-014 7.10543e-015 -79.6348 -0.754764 1.71415 15.6024 1.59872e-014 1.77636e-015 63.9384 7.6373 1.91586 9.68174 -3.8147e-006 0 43.1476 1.65279 -16.2344 10.6982 -3.8147e-006 -1.77636e-014 61.8839 -4.10955 -3.18779 11.1504 7.10543e-015 -1.90735e-006 7.64334e-007 9.35755e-006 -3.13889e-007 28.5502 2.54628 -3.93738 90.359 -39.1232 50.9658 2.30267 -3.55271e-015 -1.77636e-015 -36.7702 0.0233264 -0.237361 5.31894 0 4.44089e-015 -41.049 -0.739006 -3.27538 9.71243 -9.53674e-007 3.57628e-007 0.780713 1.45008 -17.2496 28.5502 -2.54612 -3.93738 90.4998 -39.0962 130.437 2.30268 -3.8147e-006 -3.55271e-015 -36.2971 -0.00294045 0.308642 5.31894 1.90735e-006 -4.76837e-007 -37.9265 -0.378448 -4.41218 9.71243 -7.15256e-007 -7.15256e-007 -20.1856 0.83119 -12.2585 15.9737 8.03546 -8.36195 119.303 46.7342 -57.6427 16.8869 3.33786e-006 3.33786e-006 -95.5574 -6.97769 -32.5601 8.42976 -3.8147e-006 -9.53675e-007 -77.2848 -8.07955 13.1625 7.53864 -0.0312118 2.09083 -12.3489 -1.48744 20.5892 14.7806 -6.70232 -9.44365 -35.1366 -38.6097 5.01961 19.9827 -7.10543e-015 2.86102e-006 73.4401 3.2785 -1.27787 17.4553 -5.72205e-006 -2.86102e-006 63.5135 11.6557 -5.01411 13.3835 -2.22654 7.3982 8.7997 1.66564 11.7883 
-12.9273 20.9051 0.217673 0.000617077 -0.00231363 29.996 -3.49325 -5.29384 8.88178e-016 -78.0457 -87.8282 -118.532 10.8127 -7.82778 -6.29737 -150.21 27.3617 20.959 8.91072 1.90735e-006 0 90.5575 1.24438 1.70816 15.6024 4.76837e-007 -4.76837e-007 -62.0265 17.8197 34.2351 9.68174 -1.90735e-006 -1.90735e-006 -33.3563 -0.885358 -14.0034 10.6982 0 -9.53674e-007 -50.2646 4.11315 -1.86571 11.1504 3.8147e-006 -2.38419e-006 -2.79937e-007 3.59134e-006 6.73638e-009 6.5151 -7.99897 -4.2909 -115.982 38.9646 -5.44416 9.0371 5.32907e-015 -3.55271e-015 73.9328 -1.80916 -2.82353 18.7638 4.76837e-007 5.32907e-015 -71.8447 4.99344 8.60177 10.9666 -1.42109e-014 4.76837e-007 -29.1123 -0.449555 -1.48779 10.8726 0 1.77636e-015 -27.3634 -0.0160339 -2.72884 11.2648 -7.10543e-015 9.53674e-007 -6.12286e-007 1.88664e-006 1.52381e-006 2.71428 -8.18693 -0.209972 -167.914 53.3076 -25.5421 9.87129 -3.55271e-015 -8.88178e-015 77.8037 2.10725 -0.670996 21.8657 -3.8147e-006 2.86102e-006 -61.4828 2.81654 15.7307 11.0012 0 -9.53674e-007 -10.255 -0.287553 -0.5911 12.8798 3.81469e-006 -7.62939e-006 -17.4305 -0.0366729 0.131453 13.0642 -3.81469e-006 -9.53674e-007 5.61395e-007 9.30676e-006 2.39852e-008 2.7143 8.18693 -0.20998 130.428 -30.1496 -2.19842 9.87129 0 9.53674e-007 -57.4202 -2.30284 -0.44787 21.8657 -2.86102e-006 -9.53674e-007 44.2405 -5.17202 19.0272 11.0011 -3.8147e-006 5.72205e-006 16.1425 0.301014 -0.750334 12.8798 2.84217e-014 0 24.8135 0.0317726 0.0826917 13.0642 3.8147e-006 3.55271e-015 -5.09253e-007 9.63344e-006 -1.38985e-006 6.51512 7.99896 -4.2909 140.579 -10.6018 31.7309 9.03709 9.53674e-007 -9.53674e-007 -102.709 2.40304 -2.8681 18.7638 -3.90798e-014 -1.90735e-006 82.1607 -25.02 38.7519 10.9666 7.62939e-006 9.53674e-007 38.2512 0.378292 -2.11158 10.8726 -3.81469e-006 -5.15144e-014 36.437 0.0146402 -3.28937 11.2648 3.81469e-006 9.53675e-007 4.71347e-007 9.9082e-007 -1.35481e-007 10.8127 7.82777 -6.29737 97.3845 -26.9826 60.4329 8.91072 -3.55271e-015 -3.55271e-015 -76.3202 -0.597853 1.66078 15.6024 5.32907e-015 8.88178e-015 61.4712 2.02846 6.78381 9.68174 -3.8147e-006 -2.23821e-013 43.3099 1.66554 -16.2698 10.6982 -3.8147e-006 7.10543e-015 62.0778 -4.10904 -3.20462 11.1504 0 -1.90735e-006 7.64333e-007 9.35755e-006 -3.13889e-007 28.5502 2.54628 -3.93738 90.5909 -39.0207 51.4683 2.30267 7.10543e-015 0 -37.0586 0.0548655 -0.416829 5.31894 3.55271e-015 7.10543e-015 -41.6874 -0.277801 -1.58017 9.71243 -9.53674e-007 3.57628e-007 -1.5273 1.5938 -16.3411 28.5502 -2.54612 -3.93738 91.2369 -38.9635 131.558 2.30268 -3.8147e-006 0 -36.0364 -0.00417643 1.09823 5.31894 1.90735e-006 -4.76837e-007 -37.5872 -0.368323 -3.55401 9.71243 -7.15256e-007 -7.15256e-007 -19.5554 0.598844 -12.2098 15.9737 8.03546 -8.36195 119.227 46.758 -57.6585 16.8869 3.33786e-006 3.33786e-006 -95.6471 -6.90718 -32.6704 8.42976 -3.8147e-006 -9.53675e-007 -77.7338 -7.56655 13.1057 7.53864 -0.0312118 2.09083 -12.3509 -1.47103 20.5142 14.7806 -6.70232 -9.44365 -36.0192 -39.1894 5.58612 19.9827 4.88498e-015 2.86102e-006 72.9994 3.18928 -1.79453 17.4553 -5.72205e-006 -2.86102e-006 64.3324 11.6979 -3.47182 13.3835 -2.22654 7.3982 8.80035 1.66466 10.7063 
-12.9273 21.4571 0.217673 0.000617077 -0.00231363 29.996 -3.49325 -5.29384 8.88178e-016 -84.0317 -88.1252 -123.719 10.8127 -7.82778 -6.29737 -148.752 32.8515 16.5506 8.91072 1.90735e-006 -8.88178e-016 91.5812 1.2747 1.68566 15.6024 4.76837e-007 -4.76837e-007 -78.3964 14.7832 35.27 9.68174 -1.90735e-006 -1.90735e-006 -26.322 -0.294253 -12.2887 10.6982 -7.10544e-015 -9.53674e-007 -41.8476 4.11585 -0.823462 11.1504 3.8147e-006 -2.38419e-006 -2.79937e-007 3.59134e-006 6.73637e-009 6.5151 -7.99897 -4.2909 -115.939 38.7014 -5.25881 9.0371 1.06581e-014 -7.10543e-015 73.23 -1.78365 -2.84829 18.7638 4.76837e-007 8.88178e-015 -70.7748 6.58258 11.672 10.9666 0 4.76837e-007 -29.0798 -0.45146 -1.48563 10.8726 2.13163e-014 -1.77636e-015 -27.331 -0.0168078 -2.72883 11.2648 1.42109e-014 9.53674e-007 -6.12286e-007 1.88664e-006 1.52381e-006 2.71428 -8.18693 -0.209972 -167.773 52.9882 -24.7569 9.87129 -7.10543e-015 -1.77636e-015 77.907 2.10604 -0.674795 21.8657 -3.8147e-006 2.86102e-006 -56.4581 4.92631 16.5697 11.0012 -3.55271e-014 -9.53674e-007 -15.7861 -0.316661 -0.746494 12.8798 3.81469e-006 -7.62939e-006 -24.3697 -0.0338939 0.0854588 13.0642 -3.81469e-006 -9.53674e-007 5.61395e-007 9.30676e-006 2.39853e-008 2.7143 8.18693 -0.20998 126.661 -29.8817 -4.07744 9.87129 -7.10543e-015 9.53674e-007 -50.3169 -2.35134 -0.374133 21.8657 -2.86102e-006 -9.53674e-007 38.4077 -4.46529 17.5461 11.0011 -3.8147e-006 5.72205e-006 16.3757 0.296441 -0.756717 12.8798 0 1.77636e-014 25.1036 0.0321849 0.0825168 13.0642 3.8147e-006 3.55271e-015 -5.09253e-007 9.63344e-006 -1.38985e-006 6.51512 7.99896 -4.2909 142.964 -12.6031 29.6301 9.03709 9.53674e-007 -9.53674e-007 -102.373 2.3983 -2.87947 18.7638 -2.13163e-014 -1.90735e-006 78.7846 -25.1439 34.7411 10.9666 7.62939e-006 9.53674e-007 41.0146 0.340097 -2.28547 10.8726 -3.81469e-006 -2.84217e-014 39.1863 0.0146926 -3.43202 11.2648 3.81469e-006 9.53675e-007 4.71347e-007 9.9082e-007 -1.35481e-007 10.8127 7.82777 -6.29737 91.2684 -29.6213 56.1382 8.91072 0 0 -72.5875 -0.437328 1.58806 15.6024 1.77636e-015 0 57.7015 -5.17295 13.3623 9.68174 -3.8147e-006 -2.34479e-013 43.1503 1.65535 -16.2354 10.6982 -3.8147e-006 -3.55271e-015 61.8902 -4.10978 -3.18733 11.1504 0 -1.90735e-006 7.64333e-007 9.35755e-006 -3.13889e-007 28.5502 2.54628 -3.93738 90.7256 -38.8737 51.9066 2.30267 7.10543e-015 0 -37.3834 0.0787596 -0.549281 5.31894 0 1.68754e-014 -42.2691 0.338752 0.423404 9.71243 -9.53674e-007 3.57628e-007 -4.85078 1.75633 -14.9587 28.5502 -2.54612 -3.93738 92.1282 -38.7497 132.879 2.30268 -3.8147e-006 2.66454e-015 -35.7585 -0.0049624 2.22536 5.31894 1.90735e-006 -4.76837e-007 -37.3093 -0.341899 -2.27854 9.71243 -7.15256e-007 -7.15256e-007 -18.8471 0.266976 -12.1095 15.9737 8.03546 -8.36195 119.151 46.7822 -57.6743 16.8869 3.33786e-006 3.33786e-006 -95.7528 -6.82423 -32.7945 8.42976 -3.8147e-006 -9.53675e-007 -78.3987 -6.82838 12.9961 7.53864 -0.0312118 2.09083 -12.3519 -1.46209 20.4733 14.7806 -6.70232 -9.44365 -37.256 -40.0124 6.41613 19.9827 8.88178e-016 2.86102e-006 72.3467 3.15367 -2.52714 17.4553 -5.72205e-006 -2.86102e-006 65.504 11.7283 -1.27107 13.3835 -2.22654 7.3982 8.80128 1.66738 9.20944 
